# xmcd
#
# Track frame offsets: 
#        150
#        21356
#        45563
#        68058
#        90384
#        122988
#        142026
#        154879
#        172261
#        192476
#        230049
#        263816
#
# Disc length: 3799 seconds
#
# Revision: 0
# Processed by: cddbd v1.5.1PL0 Copyright (c) Steve Scherf et al.
# Submitted via: ExactAudioCopy v0.95a4
#
DISCID=b00ed50c
DTITLE=Joel Harrison - So Long 2nd Street
DYEAR=2004
DGENRE=Country
TTITLE0=Riding On The Midnight Train
TTITLE1=Galveston
TTITLE2=Shady Grove
TTITLE3=I Am The Light Of This World
TTITLE4=I'll Fly Away
TTITLE5=So Long 2ND Street
TTITLE6=Waterbound
TTITLE7=The water Is Wide
TTITLE8=Time Flies
TTITLE9=Oh Death
TTITLE10=White Line Fever
TTITLE11=Wichita Uneman
EXTD=
EXTT0=
EXTT1=
EXTT2=
EXTT3=
EXTT4=
EXTT5=
EXTT6=
EXTT7=
EXTT8=
EXTT9=
EXTT10=
EXTT11=
PLAYORDER=
